<?xml version="1.0" encoding="UTF-8" standalone="no"?>
<svg
   xmlns:dc="http://purl.org/dc/elements/1.1/"
   xmlns:cc="http://creativecommons.org/ns#"
   xmlns:rdf="http://www.w3.org/1999/02/22-rdf-syntax-ns#"
   xmlns:svg="http://www.w3.org/2000/svg"
   xmlns="http://www.w3.org/2000/svg"
   xmlns:sodipodi="http://sodipodi.sourceforge.net/DTD/sodipodi-0.dtd"
   xmlns:inkscape="http://www.inkscape.org/namespaces/inkscape"
   width="210mm"
   height="297mm"
   viewBox="0 0 210 297"
   version="1.1"
   id="svg8"
   inkscape:version="1.0.1 (3bc2e813f5, 2020-09-07)"
   sodipodi:docname="inkscape-workspace.svg">
  <defs
     id="defs2" />
  <sodipodi:namedview
     id="base"
     pagecolor="#ffffff"
     bordercolor="#666666"
     borderopacity="1.0"
     inkscape:pageopacity="0.0"
     inkscape:pageshadow="2"
     inkscape:zoom="1.4"
     inkscape:cx="222.37517"
     inkscape:cy="455.50192"
     inkscape:document-units="mm"
     inkscape:current-layer="layer1"
     inkscape:document-rotation="0"
     showgrid="false"
     inkscape:snap-grids="true"
     inkscape:snap-object-midpoints="true"
     inkscape:snap-center="true"
     inkscape:window-width="1920"
     inkscape:window-height="1046"
     inkscape:window-x="-11"
     inkscape:window-y="-11"
     inkscape:window-maximized="1" />
  <metadata
     id="metadata5">
    <rdf:RDF>
      <cc:Work
         rdf:about="">
        <dc:format>image/svg+xml</dc:format>
        <dc:type
           rdf:resource="http://purl.org/dc/dcmitype/StillImage" />
        <dc:title></dc:title>
      </cc:Work>
    </rdf:RDF>
  </metadata>
  <g
     inkscape:label="Layer 1"
     inkscape:groupmode="layer"
     id="layer1">
    <circle
       style="fill:none;fill-rule:evenodd;stroke-width:3;stroke:#000000;stroke-opacity:1;stroke-miterlimit:4;stroke-dasharray:none"
       id="path10"
       cx="92.074356"
       cy="144.59282"
       r="17.639788" />
    <rect
       style="fill:#ff0000;fill-opacity:1;stroke:none;stroke-width:2.7056;stroke-miterlimit:4;stroke-dasharray:none;stroke-opacity:1"
       id="rect837"
       width="7.9532461"
       height="4.3523569"
       x="48.596176"
       y="125.45319"
       ry="0" />
    <rect
       style="fill:#ff0000;fill-opacity:1;stroke:none;stroke-width:2.7056;stroke-miterlimit:4;stroke-dasharray:none;stroke-opacity:1"
       id="rect839"
       width="7.9532461"
       height="4.3523569"
       x="56.549419"
       y="121.10084"
       ry="0" />
    <rect
       style="fill:#ff0000;fill-opacity:1;stroke:none;stroke-width:2.7056;stroke-miterlimit:4;stroke-dasharray:none;stroke-opacity:1"
       id="rect841"
       width="7.9532461"
       height="4.3523569"
       x="64.502663"
       y="125.45319"
       ry="0" />
    <path
       style="fill:none;stroke:#000000;stroke-width:0.264583px;stroke-linecap:butt;stroke-linejoin:miter;stroke-opacity:1"
       d="m 36.849786,135.43884 v 20.3793 h 26.159003 v -10.82442 l -7.793742,3.72115 v -4.35236 l -7.95324,4.35236 v -4.35236 l -7.953247,4.35236 V 135.4424 Z"
       id="path835"
       sodipodi:nodetypes="ccccccccccc" />
    <g
       id="g918"
       transform="matrix(0.07960226,0,0,0.07960226,-20.730633,94.280449)">
      <g
         id="g852">
	<g
   id="g850">
		<polygon
   points="129.261,126.093 129.261,75.394 0,75.394 0,126.093 30.417,126.093 98.844,126.093 "
   id="polygon848" />

	</g>

</g>
      <g
         id="g858">
	<g
   id="g856">
		<path
   d="M 384.42,200.223 V 149.27 L 256.84,200.223 V 149.27 L 129.26,200.223 V 156.511 H 0 V 436.606 H 512 V 149.27 Z M 199.286,357.586 h -70.025 v -70.024 h 70.025 z m 127.58,0 h -70.025 v -70.024 h 70.025 z m 127.58,0 H 384.42 v -70.024 h 70.025 v 70.024 z"
   id="path854" />

	</g>

</g>
      <g
         id="g860">
</g>
      <g
         id="g862">
</g>
      <g
         id="g864">
</g>
      <g
         id="g866">
</g>
      <g
         id="g868">
</g>
      <g
         id="g870">
</g>
      <g
         id="g872">
</g>
      <g
         id="g874">
</g>
      <g
         id="g876">
</g>
      <g
         id="g878">
</g>
      <g
         id="g880">
</g>
      <g
         id="g882">
</g>
      <g
         id="g884">
</g>
      <g
         id="g886">
</g>
      <g
         id="g888">
</g>
    </g>
    <g
       aria-label="ðŸ­"
       id="text846"
       style="font-style:normal;font-weight:normal;font-size:18.8533px;line-height:1.25;font-family:sans-serif;fill:#000000;fill-opacity:1;stroke:none;stroke-width:0.471334">
      <path
         d="m 94.716398,141.13148 7.944532,3.96766 v 10.08025 H 81.487789 V 137.3111 h 4.740942 q 0.09206,-0.24855 0.239349,-0.46028 0.156497,-0.22094 0.359022,-0.39585 0.09206,-0.52472 0.359023,-0.9758 0.266966,-0.45108 0.662812,-0.77328 0.395845,-0.33141 0.883748,-0.51552 0.487903,-0.18412 1.021834,-0.18412 0.681223,0 1.325623,0.313 0.6444,-0.313 1.325622,-0.313 0.506315,0 0.985012,0.17491 0.487903,0.1657 0.883748,0.4879 0.570754,0 1.03104,0.19332 0.469491,0.18412 0.846926,0.62599 0.552342,0.23015 0.883748,0.72725 0.331406,0.49711 0.331406,1.09548 0,0.41426 -0.156497,0.77328 -0.156498,0.35903 -0.432669,0.6352 -0.266966,0.26696 -0.625988,0.42346 -0.359023,0.1565 -0.77328,0.1565 -0.239349,0 -0.469492,-0.0552 -0.156497,0.0368 -0.3222,0.046 -0.156497,0.009 -0.312994,0.009 -0.395845,0.3222 -0.883748,0.49711 -0.478697,0.1657 -0.985012,0.1657 -0.681222,0 -1.325622,-0.31299 l -0.331406,0.14729 v 1.99764 l 3.967662,1.97922 z m 6.618912,12.72229 v -5.9561 H 82.813412 v 5.9561 z m -18.521898,-7.93532 v 1.32562 h 18.521898 v -1.32562 l -5.293289,-2.65125 v 2.65125 l -5.293285,-2.65125 v 2.65125 z m 5.320902,-8.59814 q -0.01841,-0.009 -0.06444,-0.009 -0.12888,0 -0.239349,0.0552 -0.110468,0.0552 -0.202526,0.14729 -0.08285,0.0921 -0.138085,0.21173 -0.04603,0.11047 -0.04603,0.23014 0,0.313 0.19332,0.49711 0.202526,0.18412 0.506314,0.18412 0.184115,0 0.331406,-0.11047 0.156497,-0.11047 0.230143,-0.26697 0.220937,0.18412 0.487903,0.28538 0.276171,0.0921 0.561548,0.0921 0.38664,0 0.736457,-0.16571 0.359023,-0.1749 0.589166,-0.4971 0.239348,0.3222 0.57996,0.4971 0.349817,0.16571 0.745662,0.16571 0.441875,0 0.828515,-0.22094 0.38664,-0.22094 0.607577,-0.60758 0.248554,0.16571 0.552342,0.16571 0.303789,0 0.552343,-0.16571 0.165703,0.16571 0.405052,0.16571 0.349817,0 0.51552,-0.20253 0.174908,-0.21173 0.174908,-0.54314 0,-0.13808 -0.07365,-0.24855 -0.06444,-0.11047 -0.174908,-0.17491 -0.101263,-0.0736 -0.230143,-0.11047 -0.119674,-0.0368 -0.239349,-0.0368 -0.09206,-0.313 -0.359022,-0.4879 -0.266966,-0.17491 -0.57996,-0.17491 -0.312994,0 -0.543137,0.1657 -0.220937,-0.38664 -0.607577,-0.60758 -0.38664,-0.22093 -0.828515,-0.22093 -0.395845,0 -0.745662,0.1749 -0.340612,0.16571 -0.57996,0.48791 -0.211732,-0.29459 -0.552343,-0.4787 -0.340611,-0.18411 -0.70884,-0.18411 -0.349817,0 -0.662811,0.12888 -0.312994,0.11967 -0.552343,0.34061 -0.230143,0.21173 -0.368229,0.51552 -0.128879,0.30379 -0.128879,0.66281 0,0.0828 0.0092,0.17491 0.01841,0.0829 0.01841,0.1657 z m -5.320902,2.64204 v 5.29328 h 2.642039 v -5.29328 z m 3.967662,0 v 5.29328 h 2.642039 v -5.29328 z m 6.618907,8.59814 v 2.65124 h -2.651245 v -2.65124 z m -5.293284,0 v 2.65124 h -2.651246 v -2.65124 z m 10.586569,0 v 2.65124 h -2.651245 v -2.65124 z"
         style="font-style:normal;font-variant:normal;font-weight:normal;font-stretch:normal;font-family:'MS Gothic';-inkscape-font-specification:'MS Gothic';stroke-width:0.471334"
         id="path928" />
    </g>
  </g>
</svg>
